<svg id="Embellishment" xmlns="http://www.w3.org/2000/svg" xmlns:xlink="http://www.w3.org/1999/xlink" width="769.809" height="385.612" viewBox="0 0 769.809 385.612">
  <defs>
    <style>
      .cls-1, .cls-3 {
        fill: none;
        stroke: #d08c61;
      }

      .cls-2 {
        clip-path: url(#clip-path);
      }

      .cls-3 {
        stroke-miterlimit: 10;
        stroke-width: 2px;
      }
    </style>
    <clipPath id="clip-path">
      <rect id="Rectangle_32397" data-name="Rectangle 32397" class="cls-1" width="769.809" height="385.612"/>
    </clipPath>
  </defs>
  <g id="Group_48442" data-name="Group 48442">
    <g id="Group_48441" data-name="Group 48441" class="cls-2">
      <line id="Line_202" data-name="Line 202" class="cls-3" y1="8.004" x2="8.004" transform="translate(360.892 376.901)"/>
    </g>
  </g>
  <line id="Line_203" data-name="Line 203" class="cls-3" y1="11.562" x2="11.561" transform="translate(359.114 335.101)"/>
  <line id="Line_204" data-name="Line 204" class="cls-3" y1="15.119" x2="15.119" transform="translate(357.335 293.302)"/>
  <line id="Line_205" data-name="Line 205" class="cls-3" y1="18.676" x2="18.676" transform="translate(355.556 251.503)"/>
  <line id="Line_206" data-name="Line 206" class="cls-3" y1="22.234" x2="22.234" transform="translate(353.777 209.703)"/>
  <line id="Line_207" data-name="Line 207" class="cls-3" y1="25.791" x2="25.791" transform="translate(351.999 167.904)"/>
  <line id="Line_208" data-name="Line 208" class="cls-3" y1="29.348" x2="29.348" transform="translate(350.22 126.106)"/>
  <line id="Line_209" data-name="Line 209" class="cls-3" y1="32.906" x2="32.906" transform="translate(348.441 84.306)"/>
  <line id="Line_210" data-name="Line 210" class="cls-3" y1="36.463" x2="36.463" transform="translate(346.663 42.507)"/>
  <g id="Group_48444" data-name="Group 48444">
    <g id="Group_48443" data-name="Group 48443" class="cls-2">
      <line id="Line_211" data-name="Line 211" class="cls-3" y1="40.021" x2="40.021" transform="translate(344.884 0.707)"/>
      <line id="Line_212" data-name="Line 212" class="cls-3" y1="8.004" x2="8.004" transform="translate(320.872 376.901)"/>
    </g>
  </g>
  <line id="Line_213" data-name="Line 213" class="cls-3" y1="11.166" x2="11.166" transform="translate(319.291 335.299)"/>
  <line id="Line_214" data-name="Line 214" class="cls-3" y1="14.328" x2="14.328" transform="translate(317.71 293.698)"/>
  <line id="Line_215" data-name="Line 215" class="cls-3" y1="17.49" x2="17.49" transform="translate(316.129 252.096)"/>
  <line id="Line_216" data-name="Line 216" class="cls-3" y1="20.653" x2="20.653" transform="translate(314.547 210.494)"/>
  <line id="Line_217" data-name="Line 217" class="cls-3" y1="23.815" x2="23.815" transform="translate(312.966 168.892)"/>
  <line id="Line_218" data-name="Line 218" class="cls-3" y1="26.977" x2="26.977" transform="translate(311.385 127.291)"/>
  <line id="Line_219" data-name="Line 219" class="cls-3" y1="30.139" x2="30.139" transform="translate(309.804 85.689)"/>
  <line id="Line_220" data-name="Line 220" class="cls-3" y1="33.301" x2="33.301" transform="translate(308.223 44.088)"/>
  <g id="Group_48446" data-name="Group 48446">
    <g id="Group_48445" data-name="Group 48445" class="cls-2">
      <line id="Line_221" data-name="Line 221" class="cls-3" y1="8.004" x2="8.004" transform="translate(280.851 376.901)"/>
    </g>
  </g>
  <line id="Line_222" data-name="Line 222" class="cls-3" y1="10.771" x2="10.771" transform="translate(279.468 335.497)"/>
  <line id="Line_223" data-name="Line 223" class="cls-3" y1="13.538" x2="13.538" transform="translate(278.084 294.093)"/>
  <line id="Line_224" data-name="Line 224" class="cls-3" y1="16.305" x2="16.305" transform="translate(276.701 252.688)"/>
  <line id="Line_225" data-name="Line 225" class="cls-3" y1="19.072" x2="19.072" transform="translate(275.317 211.284)"/>
  <line id="Line_226" data-name="Line 226" class="cls-3" y1="21.838" x2="21.838" transform="translate(273.934 169.881)"/>
  <line id="Line_227" data-name="Line 227" class="cls-3" y1="24.605" x2="24.605" transform="translate(272.551 128.477)"/>
  <line id="Line_228" data-name="Line 228" class="cls-3" y1="27.372" x2="27.372" transform="translate(271.167 87.073)"/>
  <g id="Group_48448" data-name="Group 48448">
    <g id="Group_48447" data-name="Group 48447" class="cls-2">
      <line id="Line_229" data-name="Line 229" class="cls-3" y1="8.004" x2="8.004" transform="translate(240.831 376.901)"/>
    </g>
  </g>
  <line id="Line_230" data-name="Line 230" class="cls-3" y1="10.376" x2="10.376" transform="translate(239.645 335.694)"/>
  <line id="Line_231" data-name="Line 231" class="cls-3" y1="12.747" x2="12.747" transform="translate(238.459 294.488)"/>
  <line id="Line_232" data-name="Line 232" class="cls-3" y1="15.119" x2="15.119" transform="translate(237.273 253.282)"/>
  <line id="Line_233" data-name="Line 233" class="cls-3" y1="17.49" x2="17.49" transform="translate(236.087 212.076)"/>
  <line id="Line_234" data-name="Line 234" class="cls-3" y1="19.862" x2="19.862" transform="translate(234.902 170.869)"/>
  <line id="Line_235" data-name="Line 235" class="cls-3" y1="22.234" x2="22.234" transform="translate(233.716 129.662)"/>
  <g id="Group_48450" data-name="Group 48450">
    <g id="Group_48449" data-name="Group 48449" class="cls-2">
      <line id="Line_236" data-name="Line 236" class="cls-3" y1="8.004" x2="8.004" transform="translate(200.81 376.901)"/>
    </g>
  </g>
  <line id="Line_237" data-name="Line 237" class="cls-3" y1="9.98" x2="9.98" transform="translate(199.822 335.893)"/>
  <line id="Line_238" data-name="Line 238" class="cls-3" y1="11.957" x2="11.957" transform="translate(198.834 294.883)"/>
  <line id="Line_239" data-name="Line 239" class="cls-3" y1="13.933" x2="13.933" transform="translate(197.846 253.875)"/>
  <line id="Line_240" data-name="Line 240" class="cls-3" y1="15.909" x2="15.909" transform="translate(196.857 212.866)"/>
  <line id="Line_241" data-name="Line 241" class="cls-3" y1="17.886" x2="17.886" transform="translate(195.869 171.857)"/>
  <g id="Group_48452" data-name="Group 48452">
    <g id="Group_48451" data-name="Group 48451" class="cls-2">
      <line id="Line_242" data-name="Line 242" class="cls-3" y1="8.004" x2="8.004" transform="translate(160.789 376.901)"/>
    </g>
  </g>
  <line id="Line_243" data-name="Line 243" class="cls-3" y1="9.585" x2="9.585" transform="translate(159.999 336.09)"/>
  <line id="Line_244" data-name="Line 244" class="cls-3" y1="11.166" x2="11.166" transform="translate(159.208 295.279)"/>
  <line id="Line_245" data-name="Line 245" class="cls-3" y1="12.747" x2="12.747" transform="translate(158.418 254.468)"/>
  <line id="Line_246" data-name="Line 246" class="cls-3" y1="14.328" x2="14.328" transform="translate(157.627 213.657)"/>
  <g id="Group_48454" data-name="Group 48454">
    <g id="Group_48453" data-name="Group 48453" class="cls-2">
      <line id="Line_247" data-name="Line 247" class="cls-3" y1="8.004" x2="8.004" transform="translate(120.769 376.901)"/>
    </g>
  </g>
  <line id="Line_248" data-name="Line 248" class="cls-3" y1="9.19" x2="9.19" transform="translate(120.176 336.287)"/>
  <line id="Line_249" data-name="Line 249" class="cls-3" y1="10.376" x2="10.376" transform="translate(119.583 295.673)"/>
  <line id="Line_250" data-name="Line 250" class="cls-3" y1="11.562" x2="11.561" transform="translate(118.99 255.06)"/>
  <g id="Group_48456" data-name="Group 48456">
    <g id="Group_48455" data-name="Group 48455" class="cls-2">
      <line id="Line_251" data-name="Line 251" class="cls-3" y1="8.004" x2="8.004" transform="translate(80.748 376.901)"/>
    </g>
  </g>
  <line id="Line_252" data-name="Line 252" class="cls-3" y1="8.795" x2="8.795" transform="translate(80.353 336.485)"/>
  <line id="Line_253" data-name="Line 253" class="cls-3" y1="9.585" x2="9.585" transform="translate(79.958 296.069)"/>
  <g id="Group_48458" data-name="Group 48458">
    <g id="Group_48457" data-name="Group 48457" class="cls-2">
      <line id="Line_254" data-name="Line 254" class="cls-3" y1="8.004" x2="8.004" transform="translate(40.728 376.901)"/>
    </g>
  </g>
  <line id="Line_255" data-name="Line 255" class="cls-3" y1="8.399" x2="8.399" transform="translate(40.53 336.683)"/>
  <g id="Group_48460" data-name="Group 48460">
    <g id="Group_48459" data-name="Group 48459" class="cls-2">
      <line id="Line_256" data-name="Line 256" class="cls-3" y1="8.004" x2="8.004" transform="translate(0.707 376.901)"/>
      <line id="Line_257" data-name="Line 257" class="cls-3" x1="8.004" y1="8.004" transform="translate(400.913 376.901)"/>
    </g>
  </g>
  <line id="Line_258" data-name="Line 258" class="cls-3" x1="11.561" y1="11.562" transform="translate(399.135 335.101)"/>
  <line id="Line_259" data-name="Line 259" class="cls-3" x1="15.119" y1="15.119" transform="translate(397.355 293.302)"/>
  <line id="Line_260" data-name="Line 260" class="cls-3" x1="18.676" y1="18.676" transform="translate(395.577 251.503)"/>
  <line id="Line_261" data-name="Line 261" class="cls-3" x1="22.234" y1="22.234" transform="translate(393.798 209.703)"/>
  <line id="Line_262" data-name="Line 262" class="cls-3" x1="25.791" y1="25.791" transform="translate(392.019 167.904)"/>
  <line id="Line_263" data-name="Line 263" class="cls-3" x1="29.348" y1="29.348" transform="translate(390.241 126.106)"/>
  <line id="Line_264" data-name="Line 264" class="cls-3" x1="32.906" y1="32.906" transform="translate(388.462 84.306)"/>
  <line id="Line_265" data-name="Line 265" class="cls-3" x1="36.463" y1="36.463" transform="translate(386.684 42.507)"/>
  <g id="Group_48462" data-name="Group 48462">
    <g id="Group_48461" data-name="Group 48461" class="cls-2">
      <line id="Line_266" data-name="Line 266" class="cls-3" x1="40.021" y1="40.021" transform="translate(384.904 0.707)"/>
      <line id="Line_267" data-name="Line 267" class="cls-3" x1="8.004" y1="8.004" transform="translate(440.934 376.901)"/>
    </g>
  </g>
  <line id="Line_268" data-name="Line 268" class="cls-3" x1="11.166" y1="11.166" transform="translate(439.353 335.299)"/>
  <line id="Line_269" data-name="Line 269" class="cls-3" x1="14.328" y1="14.328" transform="translate(437.772 293.698)"/>
  <line id="Line_270" data-name="Line 270" class="cls-3" x1="17.49" y1="17.49" transform="translate(436.191 252.096)"/>
  <line id="Line_271" data-name="Line 271" class="cls-3" x1="20.653" y1="20.653" transform="translate(434.609 210.494)"/>
  <line id="Line_272" data-name="Line 272" class="cls-3" x1="23.815" y1="23.815" transform="translate(433.028 168.892)"/>
  <line id="Line_273" data-name="Line 273" class="cls-3" x1="26.977" y1="26.977" transform="translate(431.447 127.291)"/>
  <line id="Line_274" data-name="Line 274" class="cls-3" x1="30.139" y1="30.139" transform="translate(429.866 85.689)"/>
  <line id="Line_275" data-name="Line 275" class="cls-3" x1="33.301" y1="33.301" transform="translate(428.285 44.088)"/>
  <g id="Group_48464" data-name="Group 48464">
    <g id="Group_48463" data-name="Group 48463" class="cls-2">
      <line id="Line_276" data-name="Line 276" class="cls-3" x1="8.004" y1="8.004" transform="translate(480.954 376.901)"/>
    </g>
  </g>
  <line id="Line_277" data-name="Line 277" class="cls-3" x1="10.771" y1="10.771" transform="translate(479.571 335.497)"/>
  <line id="Line_278" data-name="Line 278" class="cls-3" x1="13.538" y1="13.538" transform="translate(478.187 294.093)"/>
  <line id="Line_279" data-name="Line 279" class="cls-3" x1="16.305" y1="16.305" transform="translate(476.803 252.688)"/>
  <line id="Line_280" data-name="Line 280" class="cls-3" x1="19.072" y1="19.072" transform="translate(475.42 211.284)"/>
  <line id="Line_281" data-name="Line 281" class="cls-3" x1="21.838" y1="21.838" transform="translate(474.037 169.881)"/>
  <line id="Line_282" data-name="Line 282" class="cls-3" x1="24.605" y1="24.605" transform="translate(472.654 128.477)"/>
  <line id="Line_283" data-name="Line 283" class="cls-3" x1="27.372" y1="27.372" transform="translate(471.27 87.073)"/>
  <g id="Group_48466" data-name="Group 48466">
    <g id="Group_48465" data-name="Group 48465" class="cls-2">
      <line id="Line_284" data-name="Line 284" class="cls-3" x1="8.004" y1="8.004" transform="translate(520.975 376.901)"/>
    </g>
  </g>
  <line id="Line_285" data-name="Line 285" class="cls-3" x1="10.376" y1="10.376" transform="translate(519.789 335.694)"/>
  <line id="Line_286" data-name="Line 286" class="cls-3" x1="12.747" y1="12.747" transform="translate(518.603 294.488)"/>
  <line id="Line_287" data-name="Line 287" class="cls-3" x1="15.119" y1="15.119" transform="translate(517.417 253.282)"/>
  <line id="Line_288" data-name="Line 288" class="cls-3" x1="17.49" y1="17.49" transform="translate(516.232 212.076)"/>
  <line id="Line_289" data-name="Line 289" class="cls-3" x1="19.862" y1="19.862" transform="translate(515.046 170.869)"/>
  <line id="Line_290" data-name="Line 290" class="cls-3" x1="22.234" y1="22.234" transform="translate(513.859 129.662)"/>
  <g id="Group_48468" data-name="Group 48468">
    <g id="Group_48467" data-name="Group 48467" class="cls-2">
      <line id="Line_291" data-name="Line 291" class="cls-3" x1="8.004" y1="8.004" transform="translate(560.995 376.901)"/>
    </g>
  </g>
  <line id="Line_292" data-name="Line 292" class="cls-3" x1="9.98" y1="9.98" transform="translate(560.007 335.893)"/>
  <line id="Line_293" data-name="Line 293" class="cls-3" x1="11.957" y1="11.957" transform="translate(559.019 294.883)"/>
  <line id="Line_294" data-name="Line 294" class="cls-3" x1="13.933" y1="13.933" transform="translate(558.031 253.875)"/>
  <line id="Line_295" data-name="Line 295" class="cls-3" x1="15.909" y1="15.909" transform="translate(557.043 212.866)"/>
  <line id="Line_296" data-name="Line 296" class="cls-3" x1="17.886" y1="17.886" transform="translate(556.054 171.857)"/>
  <g id="Group_48470" data-name="Group 48470">
    <g id="Group_48469" data-name="Group 48469" class="cls-2">
      <line id="Line_297" data-name="Line 297" class="cls-3" x1="8.004" y1="8.004" transform="translate(601.016 376.901)"/>
    </g>
  </g>
  <line id="Line_298" data-name="Line 298" class="cls-3" x1="9.585" y1="9.585" transform="translate(600.225 336.09)"/>
  <line id="Line_299" data-name="Line 299" class="cls-3" x1="11.166" y1="11.166" transform="translate(599.435 295.279)"/>
  <line id="Line_300" data-name="Line 300" class="cls-3" x1="12.747" y1="12.747" transform="translate(598.644 254.468)"/>
  <line id="Line_301" data-name="Line 301" class="cls-3" x1="14.328" y1="14.328" transform="translate(597.854 213.657)"/>
  <g id="Group_48472" data-name="Group 48472">
    <g id="Group_48471" data-name="Group 48471" class="cls-2">
      <line id="Line_302" data-name="Line 302" class="cls-3" x1="8.004" y1="8.004" transform="translate(641.036 376.901)"/>
    </g>
  </g>
  <line id="Line_303" data-name="Line 303" class="cls-3" x1="9.19" y1="9.19" transform="translate(640.443 336.287)"/>
  <line id="Line_304" data-name="Line 304" class="cls-3" x1="10.376" y1="10.376" transform="translate(639.85 295.673)"/>
  <line id="Line_305" data-name="Line 305" class="cls-3" x1="11.561" y1="11.562" transform="translate(639.258 255.06)"/>
  <g id="Group_48474" data-name="Group 48474">
    <g id="Group_48473" data-name="Group 48473" class="cls-2">
      <line id="Line_306" data-name="Line 306" class="cls-3" x1="8.004" y1="8.004" transform="translate(681.057 376.901)"/>
    </g>
  </g>
  <line id="Line_307" data-name="Line 307" class="cls-3" x1="8.795" y1="8.795" transform="translate(680.661 336.485)"/>
  <line id="Line_308" data-name="Line 308" class="cls-3" x1="9.585" y1="9.585" transform="translate(680.267 296.069)"/>
  <g id="Group_48476" data-name="Group 48476">
    <g id="Group_48475" data-name="Group 48475" class="cls-2">
      <line id="Line_309" data-name="Line 309" class="cls-3" x1="8.004" y1="8.004" transform="translate(721.078 376.901)"/>
    </g>
  </g>
  <line id="Line_310" data-name="Line 310" class="cls-3" x1="8.399" y1="8.399" transform="translate(720.88 336.683)"/>
  <g id="Group_48478" data-name="Group 48478">
    <g id="Group_48477" data-name="Group 48477" class="cls-2">
      <line id="Line_311" data-name="Line 311" class="cls-3" x1="8.004" y1="8.004" transform="translate(761.098 376.901)"/>
    </g>
  </g>
</svg>
