<svg xmlns="http://www.w3.org/2000/svg" xmlns:xlink="http://www.w3.org/1999/xlink" width="321.697" height="642.213" viewBox="0 0 321.697 642.213">
  <defs>
    <style>
      .cls-1, .cls-3 {
        fill: none;
        stroke: #42737b;
        stroke-width: 2px;
      }

      .cls-2 {
        clip-path: url(#clip-path);
      }

      .cls-3 {
        stroke-miterlimit: 10;
      }
    </style>
    <clipPath id="clip-path">
      <rect id="Rectangle_32397" data-name="Rectangle 32397" class="cls-1" width="642.213" height="321.697"/>
    </clipPath>
  </defs>
  <g id="Embellishment" transform="translate(321.697) rotate(90)">
    <g id="Group_48442" data-name="Group 48442">
      <g id="Group_48441" data-name="Group 48441" class="cls-2">
        <line id="Line_202" data-name="Line 202" class="cls-3" x2="6.677" y2="6.677" transform="translate(301.075 0.59)"/>
      </g>
    </g>
    <line id="Line_203" data-name="Line 203" class="cls-3" x2="9.645" y2="9.646" transform="translate(299.591 32.493)"/>
    <line id="Line_204" data-name="Line 204" class="cls-3" x2="12.613" y2="12.613" transform="translate(298.107 64.397)"/>
    <line id="Line_205" data-name="Line 205" class="cls-3" x2="15.58" y2="15.58" transform="translate(296.623 96.3)"/>
    <line id="Line_206" data-name="Line 206" class="cls-3" x2="18.549" y2="18.549" transform="translate(295.139 128.203)"/>
    <line id="Line_207" data-name="Line 207" class="cls-3" x2="21.516" y2="21.516" transform="translate(293.655 160.106)"/>
    <line id="Line_208" data-name="Line 208" class="cls-3" x2="24.484" y2="24.484" transform="translate(292.171 192.01)"/>
    <line id="Line_209" data-name="Line 209" class="cls-3" x2="27.452" y2="27.452" transform="translate(290.687 223.913)"/>
    <line id="Line_210" data-name="Line 210" class="cls-3" x2="30.419" y2="30.419" transform="translate(289.204 255.816)"/>
    <g id="Group_48444" data-name="Group 48444">
      <g id="Group_48443" data-name="Group 48443" class="cls-2">
        <line id="Line_211" data-name="Line 211" class="cls-3" x2="33.388" y2="33.388" transform="translate(287.72 287.72)"/>
        <line id="Line_212" data-name="Line 212" class="cls-3" x2="6.677" y2="6.677" transform="translate(267.687 0.59)"/>
      </g>
    </g>
    <line id="Line_213" data-name="Line 213" class="cls-3" x2="9.315" y2="9.315" transform="translate(266.368 32.658)"/>
    <line id="Line_214" data-name="Line 214" class="cls-3" x2="11.953" y2="11.953" transform="translate(265.049 64.726)"/>
    <line id="Line_215" data-name="Line 215" class="cls-3" x2="14.591" y2="14.591" transform="translate(263.73 96.794)"/>
    <line id="Line_216" data-name="Line 216" class="cls-3" x2="17.23" y2="17.23" transform="translate(262.411 128.863)"/>
    <line id="Line_217" data-name="Line 217" class="cls-3" x2="19.868" y2="19.868" transform="translate(261.092 160.931)"/>
    <line id="Line_218" data-name="Line 218" class="cls-3" x2="22.506" y2="22.506" transform="translate(259.773 192.999)"/>
    <line id="Line_219" data-name="Line 219" class="cls-3" x2="25.143" y2="25.143" transform="translate(258.454 225.067)"/>
    <line id="Line_220" data-name="Line 220" class="cls-3" x2="27.781" y2="27.781" transform="translate(257.135 257.135)"/>
    <g id="Group_48446" data-name="Group 48446">
      <g id="Group_48445" data-name="Group 48445" class="cls-2">
        <line id="Line_221" data-name="Line 221" class="cls-3" x2="6.677" y2="6.677" transform="translate(234.3 0.59)"/>
      </g>
    </g>
    <line id="Line_222" data-name="Line 222" class="cls-3" x2="8.986" y2="8.986" transform="translate(233.146 32.823)"/>
    <line id="Line_223" data-name="Line 223" class="cls-3" x2="11.294" y2="11.294" transform="translate(231.992 65.056)"/>
    <line id="Line_224" data-name="Line 224" class="cls-3" x2="13.602" y2="13.602" transform="translate(230.838 97.289)"/>
    <line id="Line_225" data-name="Line 225" class="cls-3" x2="15.911" y2="15.911" transform="translate(229.684 129.522)"/>
    <line id="Line_226" data-name="Line 226" class="cls-3" x2="18.218" y2="18.218" transform="translate(228.529 161.755)"/>
    <line id="Line_227" data-name="Line 227" class="cls-3" x2="20.527" y2="20.527" transform="translate(227.375 193.988)"/>
    <line id="Line_228" data-name="Line 228" class="cls-3" x2="22.835" y2="22.835" transform="translate(226.221 226.221)"/>
    <g id="Group_48448" data-name="Group 48448">
      <g id="Group_48447" data-name="Group 48447" class="cls-2">
        <line id="Line_229" data-name="Line 229" class="cls-3" x2="6.677" y2="6.677" transform="translate(200.913 0.59)"/>
      </g>
    </g>
    <line id="Line_230" data-name="Line 230" class="cls-3" x2="8.656" y2="8.656" transform="translate(199.924 32.988)"/>
    <line id="Line_231" data-name="Line 231" class="cls-3" x2="10.634" y2="10.634" transform="translate(198.934 65.386)"/>
    <line id="Line_232" data-name="Line 232" class="cls-3" x2="12.613" y2="12.613" transform="translate(197.945 97.784)"/>
    <line id="Line_233" data-name="Line 233" class="cls-3" x2="14.591" y2="14.591" transform="translate(196.956 130.182)"/>
    <line id="Line_234" data-name="Line 234" class="cls-3" x2="16.57" y2="16.57" transform="translate(195.967 162.58)"/>
    <line id="Line_235" data-name="Line 235" class="cls-3" x2="18.549" y2="18.549" transform="translate(194.977 194.977)"/>
    <g id="Group_48450" data-name="Group 48450">
      <g id="Group_48449" data-name="Group 48449" class="cls-2">
        <line id="Line_236" data-name="Line 236" class="cls-3" x2="6.677" y2="6.677" transform="translate(167.526 0.59)"/>
      </g>
    </g>
    <line id="Line_237" data-name="Line 237" class="cls-3" x2="8.326" y2="8.326" transform="translate(166.701 33.153)"/>
    <line id="Line_238" data-name="Line 238" class="cls-3" x2="9.975" y2="9.975" transform="translate(165.877 65.716)"/>
    <line id="Line_239" data-name="Line 239" class="cls-3" x2="11.624" y2="11.624" transform="translate(165.053 98.278)"/>
    <line id="Line_240" data-name="Line 240" class="cls-3" x2="13.272" y2="13.272" transform="translate(164.228 130.841)"/>
    <line id="Line_241" data-name="Line 241" class="cls-3" x2="14.921" y2="14.921" transform="translate(163.404 163.404)"/>
    <g id="Group_48452" data-name="Group 48452">
      <g id="Group_48451" data-name="Group 48451" class="cls-2">
        <line id="Line_242" data-name="Line 242" class="cls-3" x2="6.677" y2="6.677" transform="translate(134.139 0.59)"/>
      </g>
    </g>
    <line id="Line_243" data-name="Line 243" class="cls-3" x2="7.996" y2="7.996" transform="translate(133.479 33.318)"/>
    <line id="Line_244" data-name="Line 244" class="cls-3" x2="9.315" y2="9.315" transform="translate(132.82 66.045)"/>
    <line id="Line_245" data-name="Line 245" class="cls-3" x2="10.634" y2="10.634" transform="translate(132.16 98.773)"/>
    <line id="Line_246" data-name="Line 246" class="cls-3" x2="11.953" y2="11.953" transform="translate(131.501 131.501)"/>
    <g id="Group_48454" data-name="Group 48454">
      <g id="Group_48453" data-name="Group 48453" class="cls-2">
        <line id="Line_247" data-name="Line 247" class="cls-3" x2="6.677" y2="6.677" transform="translate(100.751 0.59)"/>
      </g>
    </g>
    <line id="Line_248" data-name="Line 248" class="cls-3" x2="7.667" y2="7.667" transform="translate(100.257 33.482)"/>
    <line id="Line_249" data-name="Line 249" class="cls-3" x2="8.656" y2="8.656" transform="translate(99.762 66.375)"/>
    <line id="Line_250" data-name="Line 250" class="cls-3" x2="9.645" y2="9.646" transform="translate(99.268 99.268)"/>
    <g id="Group_48456" data-name="Group 48456">
      <g id="Group_48455" data-name="Group 48455" class="cls-2">
        <line id="Line_251" data-name="Line 251" class="cls-3" x2="6.677" y2="6.677" transform="translate(67.364 0.59)"/>
      </g>
    </g>
    <line id="Line_252" data-name="Line 252" class="cls-3" x2="7.337" y2="7.337" transform="translate(67.035 33.647)"/>
    <line id="Line_253" data-name="Line 253" class="cls-3" x2="7.996" y2="7.996" transform="translate(66.705 66.705)"/>
    <g id="Group_48458" data-name="Group 48458">
      <g id="Group_48457" data-name="Group 48457" class="cls-2">
        <line id="Line_254" data-name="Line 254" class="cls-3" x2="6.677" y2="6.677" transform="translate(33.977 0.59)"/>
      </g>
    </g>
    <line id="Line_255" data-name="Line 255" class="cls-3" x2="7.007" y2="7.007" transform="translate(33.812 33.812)"/>
    <g id="Group_48460" data-name="Group 48460">
      <g id="Group_48459" data-name="Group 48459" class="cls-2">
        <line id="Line_256" data-name="Line 256" class="cls-3" x2="6.677" y2="6.677" transform="translate(0.59 0.59)"/>
        <line id="Line_257" data-name="Line 257" class="cls-3" x1="6.677" y2="6.677" transform="translate(334.462 0.59)"/>
      </g>
    </g>
    <line id="Line_258" data-name="Line 258" class="cls-3" x1="9.645" y2="9.646" transform="translate(332.978 32.493)"/>
    <line id="Line_259" data-name="Line 259" class="cls-3" x1="12.613" y2="12.613" transform="translate(331.494 64.397)"/>
    <line id="Line_260" data-name="Line 260" class="cls-3" x1="15.58" y2="15.58" transform="translate(330.01 96.3)"/>
    <line id="Line_261" data-name="Line 261" class="cls-3" x1="18.549" y2="18.549" transform="translate(328.526 128.203)"/>
    <line id="Line_262" data-name="Line 262" class="cls-3" x1="21.516" y2="21.516" transform="translate(327.042 160.106)"/>
    <line id="Line_263" data-name="Line 263" class="cls-3" x1="24.484" y2="24.484" transform="translate(325.559 192.01)"/>
    <line id="Line_264" data-name="Line 264" class="cls-3" x1="27.452" y2="27.452" transform="translate(324.074 223.913)"/>
    <line id="Line_265" data-name="Line 265" class="cls-3" x1="30.419" y2="30.419" transform="translate(322.591 255.816)"/>
    <g id="Group_48462" data-name="Group 48462">
      <g id="Group_48461" data-name="Group 48461" class="cls-2">
        <line id="Line_266" data-name="Line 266" class="cls-3" x1="33.388" y2="33.388" transform="translate(321.106 287.72)"/>
        <line id="Line_267" data-name="Line 267" class="cls-3" x1="6.677" y2="6.677" transform="translate(367.849 0.59)"/>
      </g>
    </g>
    <line id="Line_268" data-name="Line 268" class="cls-3" x1="9.315" y2="9.315" transform="translate(366.53 32.658)"/>
    <line id="Line_269" data-name="Line 269" class="cls-3" x1="11.953" y2="11.953" transform="translate(365.211 64.726)"/>
    <line id="Line_270" data-name="Line 270" class="cls-3" x1="14.591" y2="14.591" transform="translate(363.892 96.794)"/>
    <line id="Line_271" data-name="Line 271" class="cls-3" x1="17.23" y2="17.23" transform="translate(362.572 128.863)"/>
    <line id="Line_272" data-name="Line 272" class="cls-3" x1="19.868" y2="19.868" transform="translate(361.254 160.931)"/>
    <line id="Line_273" data-name="Line 273" class="cls-3" x1="22.506" y2="22.506" transform="translate(359.935 192.999)"/>
    <line id="Line_274" data-name="Line 274" class="cls-3" x1="25.143" y2="25.143" transform="translate(358.616 225.067)"/>
    <line id="Line_275" data-name="Line 275" class="cls-3" x1="27.781" y2="27.781" transform="translate(357.297 257.135)"/>
    <g id="Group_48464" data-name="Group 48464">
      <g id="Group_48463" data-name="Group 48463" class="cls-2">
        <line id="Line_276" data-name="Line 276" class="cls-3" x1="6.677" y2="6.677" transform="translate(401.236 0.59)"/>
      </g>
    </g>
    <line id="Line_277" data-name="Line 277" class="cls-3" x1="8.986" y2="8.986" transform="translate(400.082 32.823)"/>
    <line id="Line_278" data-name="Line 278" class="cls-3" x1="11.294" y2="11.294" transform="translate(398.928 65.056)"/>
    <line id="Line_279" data-name="Line 279" class="cls-3" x1="13.602" y2="13.602" transform="translate(397.773 97.289)"/>
    <line id="Line_280" data-name="Line 280" class="cls-3" x1="15.911" y2="15.911" transform="translate(396.619 129.522)"/>
    <line id="Line_281" data-name="Line 281" class="cls-3" x1="18.218" y2="18.218" transform="translate(395.466 161.755)"/>
    <line id="Line_282" data-name="Line 282" class="cls-3" x1="20.527" y2="20.527" transform="translate(394.311 193.988)"/>
    <line id="Line_283" data-name="Line 283" class="cls-3" x1="22.835" y2="22.835" transform="translate(393.157 226.221)"/>
    <g id="Group_48466" data-name="Group 48466">
      <g id="Group_48465" data-name="Group 48465" class="cls-2">
        <line id="Line_284" data-name="Line 284" class="cls-3" x1="6.677" y2="6.677" transform="translate(434.623 0.59)"/>
      </g>
    </g>
    <line id="Line_285" data-name="Line 285" class="cls-3" x1="8.656" y2="8.656" transform="translate(433.634 32.988)"/>
    <line id="Line_286" data-name="Line 286" class="cls-3" x1="10.634" y2="10.634" transform="translate(432.645 65.386)"/>
    <line id="Line_287" data-name="Line 287" class="cls-3" x1="12.613" y2="12.613" transform="translate(431.655 97.784)"/>
    <line id="Line_288" data-name="Line 288" class="cls-3" x1="14.591" y2="14.591" transform="translate(430.667 130.182)"/>
    <line id="Line_289" data-name="Line 289" class="cls-3" x1="16.57" y2="16.57" transform="translate(429.677 162.58)"/>
    <line id="Line_290" data-name="Line 290" class="cls-3" x1="18.549" y2="18.549" transform="translate(428.687 194.977)"/>
    <g id="Group_48468" data-name="Group 48468">
      <g id="Group_48467" data-name="Group 48467" class="cls-2">
        <line id="Line_291" data-name="Line 291" class="cls-3" x1="6.677" y2="6.677" transform="translate(468.01 0.59)"/>
      </g>
    </g>
    <line id="Line_292" data-name="Line 292" class="cls-3" x1="8.326" y2="8.326" transform="translate(467.186 33.153)"/>
    <line id="Line_293" data-name="Line 293" class="cls-3" x1="9.975" y2="9.975" transform="translate(466.361 65.716)"/>
    <line id="Line_294" data-name="Line 294" class="cls-3" x1="11.624" y2="11.624" transform="translate(465.537 98.278)"/>
    <line id="Line_295" data-name="Line 295" class="cls-3" x1="13.272" y2="13.272" transform="translate(464.713 130.841)"/>
    <line id="Line_296" data-name="Line 296" class="cls-3" x1="14.921" y2="14.921" transform="translate(463.888 163.404)"/>
    <g id="Group_48470" data-name="Group 48470">
      <g id="Group_48469" data-name="Group 48469" class="cls-2">
        <line id="Line_297" data-name="Line 297" class="cls-3" x1="6.677" y2="6.677" transform="translate(501.398 0.59)"/>
      </g>
    </g>
    <line id="Line_298" data-name="Line 298" class="cls-3" x1="7.996" y2="7.996" transform="translate(500.738 33.318)"/>
    <line id="Line_299" data-name="Line 299" class="cls-3" x1="9.315" y2="9.315" transform="translate(500.079 66.045)"/>
    <line id="Line_300" data-name="Line 300" class="cls-3" x1="10.634" y2="10.634" transform="translate(499.419 98.773)"/>
    <line id="Line_301" data-name="Line 301" class="cls-3" x1="11.953" y2="11.953" transform="translate(498.76 131.501)"/>
    <g id="Group_48472" data-name="Group 48472">
      <g id="Group_48471" data-name="Group 48471" class="cls-2">
        <line id="Line_302" data-name="Line 302" class="cls-3" x1="6.677" y2="6.677" transform="translate(534.785 0.59)"/>
      </g>
    </g>
    <line id="Line_303" data-name="Line 303" class="cls-3" x1="7.667" y2="7.667" transform="translate(534.29 33.482)"/>
    <line id="Line_304" data-name="Line 304" class="cls-3" x1="8.656" y2="8.656" transform="translate(533.795 66.375)"/>
    <line id="Line_305" data-name="Line 305" class="cls-3" x1="9.645" y2="9.646" transform="translate(533.301 99.268)"/>
    <g id="Group_48474" data-name="Group 48474">
      <g id="Group_48473" data-name="Group 48473" class="cls-2">
        <line id="Line_306" data-name="Line 306" class="cls-3" x1="6.677" y2="6.677" transform="translate(568.172 0.59)"/>
      </g>
    </g>
    <line id="Line_307" data-name="Line 307" class="cls-3" x1="7.337" y2="7.337" transform="translate(567.842 33.647)"/>
    <line id="Line_308" data-name="Line 308" class="cls-3" x1="7.996" y2="7.996" transform="translate(567.513 66.705)"/>
    <g id="Group_48476" data-name="Group 48476">
      <g id="Group_48475" data-name="Group 48475" class="cls-2">
        <line id="Line_309" data-name="Line 309" class="cls-3" x1="6.677" y2="6.677" transform="translate(601.559 0.59)"/>
      </g>
    </g>
    <line id="Line_310" data-name="Line 310" class="cls-3" x1="7.007" y2="7.007" transform="translate(601.394 33.812)"/>
    <g id="Group_48478" data-name="Group 48478">
      <g id="Group_48477" data-name="Group 48477" class="cls-2">
        <line id="Line_311" data-name="Line 311" class="cls-3" x1="6.677" y2="6.677" transform="translate(634.946 0.59)"/>
      </g>
    </g>
  </g>
</svg>
